<?xml version="1.0" standalone="no"?>
<!DOCTYPE svg PUBLIC "-//W3C//DTD SVG 20010904//EN"
 "http://www.w3.org/TR/2001/REC-SVG-20010904/DTD/svg10.dtd">
<svg version="1.0" xmlns="http://www.w3.org/2000/svg"
 width="1046.000000pt" height="778.000000pt" viewBox="0 0 1046.000000 778.000000"
 preserveAspectRatio="xMidYMid meet">
<metadata>
Created by potrace 1.15, written by Peter Selinger 2001-2017
</metadata>
<g transform="translate(0.000000,778.000000) scale(0.100000,-0.100000)"
fill="#000000" stroke="none">
<path d="M4279 7043 c-58 -151 -56 -143 -30 -143 11 0 23 9 26 20 5 14 15 20
37 20 21 0 31 -6 35 -20 3 -13 14 -20 29 -20 l23 0 -25 67 c-14 36 -30 75 -35
85 -15 28 -48 23 -60 -9z"/>
<path d="M5521 7044 c-12 -15 -21 -41 -21 -59 0 -18 9 -44 21 -59 16 -21 29
-26 64 -26 35 0 48 5 64 26 49 62 10 144 -68 144 -31 0 -44 -6 -60 -26z"/>
<path d="M5720 6985 c0 -69 3 -85 15 -85 12 0 15 13 15 58 l0 57 38 -57 c21
-34 44 -58 55 -58 15 0 17 11 17 85 0 77 -2 85 -19 85 -16 0 -20 -8 -23 -41
l-3 -41 -30 41 c-16 22 -38 41 -47 41 -16 0 -18 -11 -18 -85z"/>
<path d="M6080 6985 c0 -78 2 -85 20 -85 16 0 20 7 20 30 0 17 4 30 9 30 6 0
18 -13 28 -30 11 -20 25 -30 41 -30 l24 0 -21 34 c-19 29 -19 35 -6 46 8 7 15
22 15 35 0 35 -31 55 -83 55 l-47 0 0 -85z"/>
<path d="M6271 7044 c-12 -15 -21 -41 -21 -59 0 -18 9 -44 21 -59 16 -21 29
-26 64 -26 35 0 48 5 64 26 49 62 10 144 -68 144 -31 0 -44 -6 -60 -26z"/>
<path d="M5785 5866 c-57 -26 -95 -90 -95 -162 0 -24 -5 -34 -15 -34 -13 0
-15 -23 -15 -150 l0 -150 185 0 185 0 0 150 c0 127 -2 150 -15 150 -11 0 -15
11 -15 42 0 65 -35 127 -84 149 -48 22 -89 23 -131 5z m131 -50 c24 -16 44
-70 44 -118 l0 -28 -110 0 -110 0 0 45 c0 24 5 55 11 69 24 52 108 68 165 32z"/>
<path d="M810 5725 c0 -78 2 -85 20 -85 16 0 20 7 20 30 0 17 4 30 9 30 6 0
18 -13 28 -30 11 -20 25 -30 41 -30 l24 0 -21 34 c-19 29 -19 35 -6 46 8 7 15
22 15 35 0 35 -31 55 -83 55 l-47 0 0 -85z"/>
<path d="M1080 5725 c0 -78 2 -85 19 -85 17 0 20 8 23 52 l3 53 34 -53 c21
-33 40 -52 52 -52 17 0 19 8 19 85 0 78 -2 85 -20 85 -17 0 -20 -7 -20 -46 l0
-47 -35 47 c-21 27 -44 46 -55 46 -18 0 -20 -7 -20 -85z"/>
<path d="M1540 5790 c-6 -11 -8 -30 -4 -44 3 -13 1 -27 -5 -30 -6 -4 -11 -20
-11 -36 0 -34 12 -39 98 -38 59 0 62 1 48 17 -9 10 -13 26 -9 39 4 16 1 22
-11 22 -9 0 -16 -5 -16 -11 0 -8 -4 -8 -15 1 -13 11 -13 14 0 27 16 16 19 32
9 57 -9 24 -71 21 -84 -4z"/>
<path d="M1800 5725 l0 -85 46 0 c58 0 79 12 93 52 14 39 -1 93 -29 108 -10 6
-39 10 -64 10 l-46 0 0 -85z"/>
<path d="M2017 5798 c-27 -22 -39 -66 -26 -105 13 -39 34 -53 83 -53 51 0 76
28 76 85 0 58 -25 85 -78 85 -21 0 -46 -6 -55 -12z"/>
<path d="M2191 5788 c0 -13 8 -50 17 -83 13 -47 22 -61 38 -63 18 -3 25 5 37
40 9 28 17 38 21 28 3 -8 10 -27 15 -42 7 -18 18 -28 30 -28 20 0 27 16 46
105 4 17 9 38 12 48 3 12 -1 17 -16 17 -14 0 -23 -8 -27 -27 -21 -96 -19 -92
-33 -40 -18 61 -45 65 -62 7 -15 -48 -25 -44 -33 15 -6 36 -11 45 -27 45 -13
0 -19 -7 -18 -22z"/>
<path d="M2450 5725 c0 -78 2 -85 19 -85 17 0 20 8 23 52 l3 53 34 -53 c21
-33 40 -52 52 -52 17 0 19 8 19 85 0 78 -2 85 -20 85 -17 0 -20 -7 -20 -46 l0
-47 -35 47 c-21 27 -44 46 -55 46 -18 0 -20 -7 -20 -85z"/>
<path d="M2811 5784 c-12 -15 -21 -41 -21 -59 0 -18 9 -44 21 -59 16 -21 29
-26 64 -26 35 0 48 5 64 26 49 62 10 144 -68 144 -31 0 -44 -6 -60 -26z"/>
<path d="M3037 5793 c-3 -10 -17 -48 -31 -85 -26 -67 -26 -68 -5 -68 12 0 23
8 26 20 4 15 14 20 38 20 24 0 34 -5 38 -20 4 -17 47 -31 47 -15 0 3 -14 42
-31 85 -26 68 -34 80 -54 80 -13 0 -25 -7 -28 -17z"/>
<path d="M3190 5725 l0 -85 50 0 c65 0 100 30 100 85 0 55 -35 85 -100 85
l-50 0 0 -85z"/>
<path d="M8417 5778 c-27 -22 -39 -66 -26 -105 13 -39 34 -53 83 -53 51 0 76
28 76 85 0 58 -25 85 -78 85 -21 0 -46 -6 -55 -12z"/>
<path d="M8606 5768 c-3 -13 -6 -51 -6 -85 0 -47 3 -63 14 -63 17 0 26 21 27
63 l1 32 15 -37 c19 -47 46 -50 63 -8 15 37 30 30 30 -16 0 -27 4 -34 19 -34
17 0 18 7 14 73 -6 90 -8 97 -31 97 -14 0 -26 -14 -39 -47 l-20 -48 -24 48
c-25 51 -53 62 -63 25z"/>
<path d="M9137 5773 c-3 -10 -17 -48 -31 -85 -26 -67 -26 -68 -5 -68 12 0 23
8 26 20 4 15 14 20 38 20 24 0 34 -5 38 -20 4 -17 47 -31 47 -15 0 3 -14 42
-31 85 -26 68 -34 80 -54 80 -13 0 -25 -7 -28 -17z"/>
<path d="M9290 5705 l0 -85 46 0 c76 0 86 10 81 87 -5 75 -12 83 -79 83 l-48
0 0 -85z"/>
<path d="M1450 5345 c0 -69 3 -85 15 -85 10 0 15 10 15 30 0 17 4 30 9 30 5 0
19 -13 31 -30 12 -16 30 -30 41 -30 24 0 24 5 -1 40 -17 24 -18 29 -5 34 9 3
15 19 15 40 0 42 -20 56 -79 56 l-41 0 0 -85z"/>
<path d="M1626 5408 c-3 -13 -6 -51 -6 -85 0 -47 3 -63 14 -63 17 0 26 21 27
63 l1 32 15 -37 c19 -47 46 -50 63 -8 15 37 30 30 30 -16 0 -27 4 -34 19 -34
17 0 18 7 14 73 -6 90 -8 97 -31 97 -14 0 -26 -14 -39 -47 l-20 -48 -24 48
c-25 51 -53 62 -63 25z"/>
<path d="M2377 5418 c-27 -22 -39 -66 -26 -105 13 -39 34 -53 83 -53 51 0 76
28 76 85 0 58 -25 85 -78 85 -21 0 -46 -6 -55 -12z"/>
<path d="M2570 5345 c0 -69 3 -85 15 -85 12 0 15 13 15 58 l0 57 38 -57 c21
-34 44 -58 55 -58 15 0 17 11 17 85 0 77 -2 85 -19 85 -16 0 -20 -8 -23 -41
l-3 -41 -30 41 c-16 22 -38 41 -47 41 -16 0 -18 -11 -18 -85z"/>
<path d="M7811 5388 c0 -13 8 -50 17 -83 13 -47 22 -61 38 -63 18 -3 25 5 37
40 9 28 17 38 21 28 3 -8 10 -27 15 -42 7 -18 18 -28 30 -28 20 0 27 16 46
105 4 17 9 38 12 48 3 12 -1 17 -16 17 -14 0 -23 -8 -27 -27 -21 -96 -19 -92
-33 -40 -18 61 -45 65 -62 7 -15 -48 -25 -44 -33 15 -6 36 -11 45 -27 45 -13
0 -19 -7 -18 -22z"/>
<path d="M8099 5383 c-58 -151 -56 -143 -30 -143 11 0 23 9 26 20 5 14 15 20
37 20 21 0 31 -6 35 -20 3 -13 14 -20 29 -20 l23 0 -25 67 c-14 36 -30 75 -35
85 -15 28 -48 23 -60 -9z"/>
<path d="M8570 5325 c0 -69 3 -85 15 -85 10 0 15 10 15 30 0 17 4 30 9 30 5 0
19 -13 31 -30 12 -16 30 -30 41 -30 24 0 24 5 -1 40 -17 24 -18 29 -5 34 9 3
15 19 15 40 0 42 -20 56 -79 56 l-41 0 0 -85z"/>
<path d="M8750 5386 c0 -12 -3 -51 -6 -85 -7 -58 -6 -61 15 -61 19 0 21 6 22
53 l0 52 19 -42 c11 -25 26 -43 35 -43 9 0 24 18 35 43 l20 42 0 -52 c0 -46 3
-53 20 -53 22 0 25 23 14 118 -6 42 -10 52 -26 52 -13 0 -26 -15 -40 -47 l-21
-47 -24 47 c-26 53 -63 66 -63 23z"/>
<path d="M9017 5393 c-3 -10 -17 -48 -31 -85 -26 -67 -26 -68 -5 -68 12 0 23
8 26 20 4 15 14 20 38 20 24 0 34 -5 38 -20 4 -17 47 -31 47 -15 0 3 -14 42
-31 85 -26 68 -34 80 -54 80 -13 0 -25 -7 -28 -17z"/>
<path d="M9170 5325 c0 -78 2 -85 20 -85 16 0 20 7 20 30 0 17 4 30 9 30 6 0
18 -13 28 -30 11 -20 25 -30 41 -30 l24 0 -21 34 c-19 29 -19 35 -6 46 8 7 15
22 15 35 0 35 -31 55 -83 55 l-47 0 0 -85z"/>
<path d="M3463 4290 c-45 -27 -63 -60 -70 -124 -4 -38 -10 -56 -19 -56 -11 0
-14 -31 -14 -155 l0 -155 185 0 185 0 0 155 c0 125 -3 155 -14 155 -9 0 -16
17 -20 48 -8 64 -36 112 -77 134 -45 24 -115 23 -156 -2z m136 -34 c33 -18 51
-54 51 -106 l0 -40 -110 0 -110 0 0 30 c0 42 23 94 51 114 29 20 81 21 118 2z"/>
<path d="M5784 3839 c-16 -5 -41 -20 -55 -35 -23 -25 -24 -30 -27 -210 l-3
-184 50 0 51 0 0 105 0 105 65 0 65 0 0 35 0 35 -65 0 c-57 0 -65 2 -65 19 0
10 9 29 19 42 17 21 28 24 83 24 l63 0 3 31 c3 26 -1 33 -20 38 -33 8 -127 6
-164 -5z"/>
<path d="M4515 3828 c-3 -7 -4 -103 -3 -213 l3 -200 119 -3 c247 -6 319 42
321 213 0 101 -22 149 -86 185 -41 23 -56 25 -196 28 -123 3 -154 1 -158 -10z
m270 -82 c18 -8 39 -24 45 -37 17 -31 18 -117 2 -155 -17 -41 -51 -56 -139
-62 l-73 -5 0 137 0 136 65 0 c36 0 81 -6 100 -14z"/>
<path d="M5258 3741 c-87 -18 -122 -70 -116 -169 4 -60 7 -67 42 -99 37 -34
38 -34 117 -31 86 3 96 -4 63 -50 -18 -26 -79 -30 -110 -7 -10 8 -38 15 -61
15 -38 0 -43 -3 -43 -22 0 -46 32 -65 118 -74 76 -8 153 10 183 43 23 24 24
32 27 198 l3 174 -38 10 c-58 15 -144 20 -185 12z m103 -71 c18 0 20 -6 17
-77 l-3 -78 -47 -3 c-60 -4 -88 20 -88 76 0 60 40 99 88 86 8 -2 22 -4 33 -4z"/>
<path d="M5940 3734 c0 -17 55 -184 71 -216 23 -44 64 -78 95 -78 29 0 30 -10
5 -41 -15 -19 -29 -24 -63 -24 -40 0 -43 -2 -46 -27 -3 -22 2 -30 23 -38 68
-26 153 -1 181 52 25 47 113 361 104 371 -4 5 -27 7 -50 5 l-43 -3 -30 -105
c-16 -58 -33 -109 -38 -115 -18 -18 -47 30 -79 128 l-31 97 -50 0 c-27 0 -49
-3 -49 -6z"/>
<path d="M5000 3570 l0 -160 50 0 50 0 0 160 0 160 -50 0 -50 0 0 -160z"/>
<path d="M5540 3570 l0 -160 50 0 50 0 0 160 0 160 -50 0 -50 0 0 -160z"/>
<path d="M1139 1983 c-58 -151 -56 -143 -30 -143 11 0 23 9 26 20 5 14 15 20
37 20 21 0 31 -6 35 -20 3 -13 14 -20 29 -20 l23 0 -25 67 c-14 36 -30 75 -35
85 -15 28 -48 23 -60 -9z"/>
<path d="M1300 1925 l0 -85 46 0 c58 0 79 12 93 52 14 39 -1 93 -29 108 -10 6
-39 10 -64 10 l-46 0 0 -85z"/>
<path d="M1699 1983 c-58 -151 -56 -143 -30 -143 11 0 23 9 26 20 5 14 15 20
37 20 21 0 31 -6 35 -20 3 -13 14 -20 29 -20 l23 0 -25 67 c-14 36 -30 75 -35
85 -15 28 -48 23 -60 -9z"/>
<path d="M1860 1925 c0 -69 3 -85 15 -85 12 0 15 13 15 58 l0 57 38 -57 c21
-34 44 -58 55 -58 15 0 17 11 17 85 0 77 -2 85 -19 85 -16 0 -20 -8 -23 -41
l-3 -41 -30 41 c-16 22 -38 41 -47 41 -16 0 -18 -11 -18 -85z"/>
<path d="M2400 1925 l0 -85 46 0 c58 0 79 12 93 52 14 39 -1 93 -29 108 -10 6
-39 10 -64 10 l-46 0 0 -85z"/>
<path d="M7230 1715 l0 -115 115 0 c113 0 115 0 115 23 0 31 -43 118 -71 144
-30 27 -106 62 -136 63 -23 0 -23 -2 -23 -115z"/>
<path d="M7089 1782 c-171 -89 -153 -355 29 -416 25 -9 64 -16 87 -16 51 0
145 45 145 69 0 9 -34 50 -75 91 l-75 74 0 113 0 113 -29 0 c-16 0 -53 -13
-82 -28z"/>
<path d="M1150 1545 c0 -78 2 -85 19 -85 17 0 20 8 23 52 l3 53 34 -53 c21
-33 40 -52 52 -52 17 0 19 8 19 85 0 78 -2 85 -20 85 -17 0 -20 -7 -20 -46 l0
-47 -35 47 c-21 27 -44 46 -55 46 -18 0 -20 -7 -20 -85z"/>
<path d="M1530 1545 c0 -69 3 -85 15 -85 10 0 15 10 15 30 0 17 4 30 9 30 5 0
19 -13 31 -30 12 -16 30 -30 41 -30 24 0 24 5 -1 40 -17 24 -18 29 -5 34 9 3
15 19 15 40 0 42 -20 56 -79 56 l-41 0 0 -85z"/>
<path d="M2321 1604 c-12 -15 -21 -41 -21 -59 0 -18 9 -44 21 -59 16 -21 29
-26 64 -26 35 0 48 5 64 26 49 62 10 144 -68 144 -31 0 -44 -6 -60 -26z"/>
<path d="M2520 1545 c0 -69 3 -85 15 -85 12 0 15 13 15 58 l0 57 38 -57 c21
-34 44 -58 55 -58 15 0 17 11 17 85 0 77 -2 85 -19 85 -16 0 -20 -8 -23 -41
l-3 -41 -30 41 c-16 22 -38 41 -47 41 -16 0 -18 -11 -18 -85z"/>
<path d="M7284 1559 c-4 -6 24 -42 65 -83 l72 -71 23 29 c23 28 46 88 46 120
0 14 -14 16 -99 16 -63 0 -102 -4 -107 -11z"/>
<path d="M8230 1475 c0 -78 2 -85 20 -85 16 0 20 7 20 30 0 17 4 30 9 30 6 0
18 -13 28 -30 11 -20 25 -30 41 -30 l24 0 -21 34 c-19 29 -19 35 -6 46 8 7 15
22 15 35 0 35 -31 55 -83 55 l-47 0 0 -85z"/>
<path d="M8447 1543 c-3 -10 -17 -48 -31 -85 -26 -67 -26 -68 -5 -68 12 0 23
8 26 20 4 15 14 20 38 20 24 0 34 -5 38 -20 4 -17 47 -31 47 -15 0 3 -14 42
-31 85 -26 68 -34 80 -54 80 -13 0 -25 -7 -28 -17z"/>
<path d="M9050 1475 c0 -78 2 -85 19 -85 17 0 20 8 23 52 l3 53 34 -53 c21
-33 40 -52 52 -52 17 0 19 8 19 85 0 78 -2 85 -20 85 -17 0 -20 -7 -20 -46 l0
-47 -35 47 c-21 27 -44 46 -55 46 -18 0 -20 -7 -20 -85z"/>
</g>
</svg>
