<?xml version="1.0" encoding="UTF-8" standalone="no"?>
<svg
   xmlns:dc="http://purl.org/dc/elements/1.1/"
   xmlns:cc="http://creativecommons.org/ns#"
   xmlns:rdf="http://www.w3.org/1999/02/22-rdf-syntax-ns#"
   xmlns:svg="http://www.w3.org/2000/svg"
   xmlns="http://www.w3.org/2000/svg"
   viewBox="0 0 673.90668 673.90668"
   height="673.90668"
   width="673.90668"
   xml:space="preserve"
   id="svg2"
   version="1.1"><metadata
     id="metadata8"><rdf:RDF><cc:Work
         rdf:about=""><dc:format>image/svg+xml</dc:format><dc:type
           rdf:resource="http://purl.org/dc/dcmitype/StillImage" /></cc:Work></rdf:RDF></metadata><defs
     id="defs6" /><g
     transform="matrix(1.3333333,0,0,-1.3333333,0,673.90667)"
     id="g10"><g
       transform="scale(0.1)"
       id="g12"><path
         id="path14"
         style="fill:#ffffff;fill-opacity:1;fill-rule:evenodd;stroke:none"
         d="M 0,5054.3 H 5054.3 V 0 H 0 v 5054.3 0" /><path
         id="path16"
         style="fill:#ffffff;fill-opacity:1;fill-rule:evenodd;stroke:none"
         d="M 0,5054.3 H 5054.3 V 0 H 0 v 5054.3 0" /><path
         id="path18"
         style="fill:#100f0d;fill-opacity:1;fill-rule:evenodd;stroke:none"
         d="m 3358.39,2774.45 c -50.38,-21.41 -79.06,-73.69 -69.35,-138.56 9.71,-64.87 -18.78,-117.76 -27.92,-132.25 25.82,-4.42 101.63,41.56 90.02,89.42 -11.6,47.87 -35.94,102.03 7.25,181.39 z m -828.98,-75 216.73,216.72 c 7.1,-18.6 11,-38.79 11,-59.88 0,-46.35 -18.8,-88.32 -49.16,-118.68 -30.36,-30.36 -72.34,-49.16 -118.68,-49.16 -21.1,0 -41.29,3.9 -59.89,11 z m -59.58,38.96 237.36,237.35 0.79,-0.79 c 10.08,-10.08 18.89,-21.44 26.15,-33.81 l -229.7,-229.7 c -12.37,7.26 -23.73,16.07 -33.81,26.15 l -0.79,0.8 z m -43.35,76.97 203.72,203.72 c 10.5,-2.63 20.61,-6.25 30.23,-10.75 l -223.19,-223.2 c -4.51,9.62 -8.13,19.73 -10.76,30.23 z m -657.87,61.27 c 25.68,121.12 121.73,115.46 213.71,72.57 l 1.06,-2.92 c 0,0 -147.06,12.71 -172.88,-85.54 0,0 20.15,-32.75 79.98,-44.09 0,0 -33.37,20.79 -35.9,45.98 10.74,14.72 32.77,24.97 57.39,30.37 -6.7,-8.08 -10.72,-18.44 -10.72,-29.75 0,-25.74 20.86,-46.6 46.6,-46.6 25.73,0 46.6,20.86 46.6,46.6 0,12.18 -4.67,23.26 -12.32,31.57 22.6,-4.45 38.92,-14.61 39.02,-30.94 0.24,-44.79 -102.95,-88.16 -102.95,-88.16 0,0 128.7,-4.23 169.96,60.65 0.01,-0.75 0.01,-1.49 -0.03,-2.24 -0.11,-2.74 -0.6,-5.28 -1.41,-7.62 -16.05,-82.47 -82.08,-329.75 -73.83,-382.31 4.6,-29.24 20.08,-55.68 46.43,-69.35 3.38,-1.25 6.69,-2.68 9.92,-4.34 -77.29,-14.47 -127.2,-97.73 -193.26,-120.41 -66.05,-22.68 -49.96,73.48 -49.96,73.48 -79.38,-24.26 -90.19,-150.06 2.88,-194.69 24.17,-11.58 63.77,-16.66 109.25,-16.35 52.61,-24.57 134.44,-49.33 253.19,-51.97 0,0 -87.89,22.32 -154.9,59.78 89.71,13.11 177.42,41.74 205,79.26 45.25,-33.47 151.72,-59.2 251.82,-71.09 -67.49,-49.22 -205.29,-71.43 -205.29,-71.43 194.73,-13.01 295.52,42.31 327.41,64.36 48.66,1.33 99.74,11.37 135.37,33.61 49.94,31.17 61.89,121.45 9.82,175.16 3.01,-82.83 -61.73,-94.4 -139.69,-50.61 -73.14,41.06 -146.14,116.51 -214.99,102.93 85.05,56.86 50.78,133.44 -23.29,166.43 73.63,-126.25 -64.19,-135.51 -84.77,-85.96 -23.07,-2.36 -157.94,-76.68 -201.16,-10.8 -43.23,65.86 65.82,433.87 38.65,450.19 -27.14,16.32 -50.09,103.75 -50.09,103.75 -42.9,-32.12 -218.9,62.24 -232.24,74.47 -38.38,21.59 -127.26,13.87 -159.45,-30.99 4.41,550.8 549.1,664.79 549.1,664.79 -158.31,-81.2 -213.78,-314.31 -213.78,-314.31 37.71,147.13 255.99,280.12 551.72,308.04 295.71,27.93 538.75,189.41 538.75,189.41 -59.43,-87.62 -276.77,-240.49 -276.77,-240.49 18.6,-88.27 150.76,-218.93 150.76,-218.93 -104.46,33.56 -217.64,171.89 -217.64,171.89 65.65,-278.08 366.41,-277.27 467.98,-512.17 -169.74,202.78 -299.56,155.04 -447.67,349.3 0,0 -7.18,-117.59 154.38,-240.15 57.29,-43.45 103.55,-86.06 137.84,-121.58 l -96.44,48.62 c 90.14,-199.98 169.78,-780.24 -68.22,-963.01 -45.92,341.83 -41.72,715.76 -41.7,717.79 l -50.19,0.4 v -0.4 h -26.55 c -7.07,47.22 -29.28,89.5 -61.51,121.73 -1.98,1.98 -3.99,3.92 -6.04,5.82 96.38,-15.56 146.21,-54.54 146.21,-54.54 0,0 -68.25,113.89 -118.93,140.99 -50.65,27.1 -113.14,13.82 -216.5,-25.02 -103.33,-38.84 -241.07,-36.08 -241.07,-36.08 -2.03,-22.85 14.87,-70.15 41.24,-76.93 14.44,-3.71 33.05,-7.49 44.39,-13.32 -13.98,-28.77 -21.82,-61.08 -21.82,-95.21 0,-60.25 24.43,-114.81 63.92,-154.3 39.48,-39.49 94.05,-63.92 154.3,-63.92 60.24,0 114.81,24.43 154.3,63.92 32.23,32.24 54.43,74.52 61.5,121.74 h 26.68 c 2.09,-220.73 23.51,-937.98 210.59,-1177.87 -9.52,8.65 -18.59,18.54 -27.22,29.51 -55.49,-108.47 -183.22,-299.14 -254.86,-403.77 -3.79,34.95 -8.9,63.21 -15.02,76.04 -23.38,49.1 -169.43,-81.88 -207.67,-83.71 -38.24,-1.84 -109.27,96.72 -225.1,10.35 -41.77,-24.28 -172.63,90.94 -185.45,79.18 -3.61,-3.3 -8.31,-20.14 -12.89,-44.18 -43.65,79.81 -112.92,208.56 -177.25,337.09 85.08,-94.98 185.93,-169.57 284.05,-186.02 218.52,-36.56 611.47,128.91 776.65,223.42 -91.29,102.19 -148.47,326.35 -172.02,436.02 -53.39,-23.89 -96.63,-38.13 -96.63,-38.13 109.78,-221.09 -207.69,-284.47 -241.95,-289.68 -61.14,-9.3 -95.87,80.25 -97.35,125.56 83.03,36.55 113.21,97.23 113.21,97.23 -93.61,-26.35 -329.53,-36.27 -437.06,5.06 0,0 36.19,-63.62 92.25,-99.16 5.06,-70.55 -34.64,-123.79 -70.76,-121.14 -127.59,9.42 -197.87,130.47 -230.66,247.89 -30.14,9.97 -73.7,25.98 -109.61,45.49 l -14.92,-87.38 0.02,-0.04 c -107.06,-66.05 -270.83,-160.35 -286.19,-219.98 84.25,-210.17 148.19,-325.68 140.95,-350.14 -94.97,-53.63 -151.77,-102.96 -190.35,-154.66 l 759.45,-689.089 c 0,0 -116.46,459.869 -252.99,739.549 1.6,37.17 129.05,-29.55 203.32,-71.67 -7.77,-59.54 -12.18,-132.17 -4.02,-170.92 14.84,-70.45 172.49,37.4 212.77,-1.16 40.27,-38.57 166.62,-10.31 207.69,-0.01 41.1,10.29 206.85,-87.949 230.75,-75.65 14.81,7.6 17.08,115.76 11.12,208.67 l 253.8,104.12 C 2808.25,1078.38 2581.27,527.48 2581.27,527.48 2964.54,906.27 3657.75,1206 3657.75,1206 c 0,0 -47.81,153.09 -178.1,263.01 19.56,90.78 177.23,205.09 177.23,205.09 -122.77,223.17 -301.63,346.84 -391.12,398.17 l 6.11,214.51 c 167.39,40.1 327.83,380.92 315.58,501.31 -10.35,101.74 -102.39,103.72 -175.91,60.4 184.14,29.07 26.96,-344.56 -58.74,-419.62 -82.69,-72.44 -124.66,-61.09 -150.5,10.7 -25.86,71.8 -12.37,231.87 72.85,363.97 66.68,103.35 173.5,167.93 251.54,127.55 14.32,352.95 284.74,773.75 -155.14,973.24 88.84,2.52 185.94,-56.37 185.94,-56.37 -143.7,182.17 -350.86,154.95 -350.86,154.95 -21.16,196.88 -250.11,268.7 -250.11,268.7 147.52,-88.57 139.34,-159.91 139.34,-159.91 -84.4,108.87 -308.78,126.39 -308.78,126.39 65.98,-46.01 230.13,-150.1 230.13,-150.1 -48.9,6.89 -195.51,108.51 -353.93,166.64 -158.38,58.11 -239.49,3.67 -239.49,3.67 85.66,13.33 220.32,-39.56 290.02,-105.86 69.73,-66.32 181.84,-125.43 181.84,-125.43 0,0 -86.47,14.09 -174.77,82.08 -88.3,67.97 -213.43,108.24 -213.43,108.24 0,0 59.72,-16.89 177.85,-113.59 118.13,-96.65 224.16,-132.32 224.16,-132.32 -147.92,18.99 -363.97,201.95 -521.16,242 -157.2,40.07 -254.29,-54.46 -254.29,-54.46 51.6,32.25 261.48,5.45 352.43,-70.44 90.94,-75.89 277.57,-153.99 277.57,-153.99 -101.49,1.13 -410.82,150.2 -410.82,150.2 l 121.17,-95.23 c -63.31,18.35 -255.71,149.03 -442.33,147.12 -186.64,-1.9 -330.63,-115.24 -330.63,-115.24 77.98,32.29 172.08,32.19 172.08,32.19 49.26,28.82 260.6,59.24 471.72,-72.19 211.13,-131.42 416.2,-132.14 416.2,-132.14 0,0 -230.63,-20.17 -405.54,60.98 -174.91,81.15 -341.02,104.58 -341.02,104.58 78.07,-20.42 129.28,-70.93 129.28,-70.93 -205.45,64.74 -463.86,101.2 -580.22,-136.51 -116.37,-237.73 -15.24,-481.64 -15.24,-481.64 -39.45,254.04 123.05,485.24 123.05,485.24 -31.51,-63.32 -58.75,-243.01 -58.75,-243.01 97.82,213.04 266.05,264.6 266.05,264.6 -144.35,-75.66 -204.2,-286.52 -204.2,-286.52 183.29,251.78 512.78,265.56 512.78,265.56 -480.38,-96.01 -536.57,-424.51 -536.57,-424.51 -17.5,62.73 -4.93,148.89 -4.93,148.89 -151.96,-383.28 51.24,-575.9 51.24,-575.9 l -0.01,0.08 c 13.46,-24.19 36.26,-51.94 71.29,-83.5 v 0" /></g></g></svg>